<?xml version="1.0" standalone="no"?>
<!DOCTYPE svg PUBLIC "-//W3C//DTD SVG 20010904//EN"
 "http://www.w3.org/TR/2001/REC-SVG-20010904/DTD/svg10.dtd">
<svg version="1.0" xmlns="http://www.w3.org/2000/svg"
 width="1024.000000pt" height="1024.000000pt" viewBox="0 0 1024.000000 1024.000000"
 preserveAspectRatio="xMidYMid meet">
<metadata>
Created by potrace 1.14, written by Peter Selinger 2001-2017
</metadata>
<g transform="translate(0.000000,1024.000000) scale(0.100000,-0.100000)"
fill="#000000" stroke="none">
<path d="M4310 9958 c0 -8 4 -39 10 -69 5 -30 12 -70 15 -89 26 -161 132 -544
203 -735 119 -319 277 -613 447 -830 72 -91 82 -103 179 -204 39 -41 62 -71
51 -67 -294 104 -795 213 -1195 261 -286 33 -751 48 -985 31 -203 -15 -232
-18 -255 -21 -14 -2 -52 -6 -85 -10 -181 -18 -482 -77 -699 -136 -427 -116
-897 -326 -1245 -557 l-55 -36 105 -98 c561 -530 1210 -886 1797 -987 59 -10
100 -21 92 -24 -8 -3 -57 -17 -109 -32 -208 -57 -465 -175 -668 -307 -293
-189 -563 -461 -752 -756 -233 -366 -391 -844 -437 -1322 -3 -30 -7 -68 -9
-85 -3 -16 -8 -109 -11 -207 l-7 -176 59 -8 c77 -9 385 -10 493 -1 603 52
1110 264 1444 603 l58 59 -41 -75 c-131 -238 -237 -520 -309 -820 -44 -182
-68 -329 -97 -590 -11 -109 -11 -538 1 -685 14 -160 38 -346 60 -460 8 -38 17
-86 20 -105 7 -43 61 -272 75 -320 43 -151 102 -336 132 -418 l20 -54 62 7
c33 4 68 9 76 10 8 1 35 6 60 10 94 14 300 69 425 112 358 126 648 320 842
565 l45 57 107 -107 c524 -529 1297 -883 2136 -981 172 -20 191 -21 340 -26
l150 -6 -105 39 c-350 130 -626 284 -902 504 -203 161 -464 443 -621 668 -297
428 -517 1003 -582 1520 -3 25 -8 61 -10 80 -24 181 -24 589 0 780 38 313 104
586 202 850 82 219 195 442 321 635 350 535 812 923 1384 1159 218 90 561 181
798 211 241 30 331 33 1254 34 511 1 931 3 932 4 3 3 -35 73 -115 212 -43 75
-174 280 -239 375 -129 189 -408 549 -503 650 -8 9 -36 40 -63 70 -83 93 -296
308 -401 405 -245 227 -386 338 -790 621 -33 23 -127 81 -210 130 -82 48 -153
92 -157 98 -4 6 -8 8 -8 4 0 -7 -239 109 -250 121 -3 4 -10 7 -17 8 -6 1 -40
15 -75 31 -515 235 -1148 403 -1738 461 -185 19 -221 21 -437 28 -184 5 -213
4 -213 -9z"/>
<path d="M2205 9913 c-114 -12 -373 -58 -384 -69 -2 -2 22 -46 53 -98 208
-349 539 -619 984 -801 291 -119 574 -175 862 -170 174 3 237 9 254 25 9 9
-101 197 -198 340 -419 617 -878 843 -1571 773z"/>
</g>
</svg>
